<?xml version="1.0" encoding="utf-8"?>
<!-- Generator: Adobe Illustrator 19.2.1, SVG Export Plug-In . SVG Version: 6.00 Build 0)  -->
<svg version="1.1" id="Layer_1" xmlns="http://www.w3.org/2000/svg" xmlns:xlink="http://www.w3.org/1999/xlink" x="0px" y="0px"
	 viewBox="0 0 18 14" style="enable-background:new 0 0 18 14;" xml:space="preserve">
<title>Amount</title>
<g>
	<path d="M17,0H9H1C0.4,0,0,0.4,0,1v4c0,0.6,0.4,1,1,1h3v2H1C0.4,8,0,8.4,0,9v4c0,0.6,0.4,1,1,1h5c0.6,0,1-0.4,1-1s-0.4-1-1-1H2v-2
		h3h1c0.6,0,1-0.4,1-1S6.6,8,6,8V6h3h3c0,0.6,0.4,1,1,1s1-0.4,1-1h3c0.6,0,1-0.4,1-1V1C18,0.4,17.6,0,17,0z M5,4H2V2h6v2H5z M16,4
		h-3h-3V2h6V4z"/>
	<path d="M17,8H9C8.4,8,8,8.4,8,9v4c0,0.6,0.4,1,1,1h8c0.6,0,1-0.4,1-1V9C18,8.4,17.6,8,17,8z M16,12h-6v-2h6V12z"/>
</g>
</svg>
