<svg id="Layer_1" data-name="Layer 1" xmlns="http://www.w3.org/2000/svg" viewBox="0 0 42 42"><defs><style>.cls-1{opacity:0.3;}.cls-2{fill:#81888f;}.cls-3{fill:#64c76c;}</style></defs><title>Amount-big</title><g class="cls-1"><path class="cls-2" d="M24.62,5.5a19,19,0,1,1-19,19,19,19,0,0,1,19-19m0-2a21,21,0,1,0,21,21,21,21,0,0,0-21-21h0Z" transform="translate(-3.62 -3.5)"/></g><path class="cls-3" d="M32.62,17.5h-16a1,1,0,0,0-1,1v4a1,1,0,0,0,1,1h3v2h-3a1,1,0,0,0-1,1v4a1,1,0,0,0,1,1h5a1,1,0,1,0,0-2h-4v-2h4a1,1,0,1,0,0-2v-2h6a1,1,0,0,0,2,0h3a1,1,0,0,0,1-1v-4A1,1,0,0,0,32.62,17.5Zm-12,4h-3v-2h6v2h-3Zm11,0h-6v-2h6v2Z" transform="translate(-3.62 -3.5)"/><path class="cls-2" d="M32.62,31.5h-8a1,1,0,0,1-1-1v-4a1,1,0,0,1,1-1h8a1,1,0,0,1,1,1v4A1,1,0,0,1,32.62,31.5Zm-7-2h6v-2h-6v2Z" transform="translate(-3.62 -3.5)"/></svg>