<svg id="Layer_1" data-name="Layer 1" xmlns="http://www.w3.org/2000/svg" viewBox="0 0 15.1 20"><title>coldWater</title><path d="M19,25.39a4.83,4.83,0,0,1,1-3L24.07,17l4.09,5.44a4.9,4.9,0,0,1,.46.72,1,1,0,0,0,1.78-.92,7,7,0,0,0-.64-1l-4.89-6.49a1,1,0,0,0-1.6,0l-4.88,6.48a6.86,6.86,0,0,0,1.31,9.64,1,1,0,0,0,1.22-1.59A4.88,4.88,0,0,1,19,25.39Z" transform="translate(-16.98 -14.35)"/><path d="M31.07,28.35H29.49l1.12-1.12a1,1,0,0,0-1.41-1.41l-1.12,1.12V25.35a1,1,0,0,0-2,0v1.59l-1.12-1.12a1,1,0,0,0-1.41,1.41l1.12,1.12H23.07a1,1,0,0,0,0,2h1.59l-1.12,1.12a1,1,0,1,0,1.41,1.41l1.12-1.12v1.59a1,1,0,0,0,2,0V31.76l1.12,1.12a1,1,0,1,0,1.41-1.41l-1.12-1.12h1.59A1,1,0,0,0,31.07,28.35Z" transform="translate(-16.98 -14.35)"/></svg>