<svg id="Layer_1" data-name="Layer 1" xmlns="http://www.w3.org/2000/svg" viewBox="0 0 42 42"><defs><style>.cls-1{opacity:0.3;}.cls-2{fill:#81888f;}.cls-3{fill:#64c76c;}</style></defs><title>electricity-big</title><g class="cls-1"><path class="cls-2" d="M24.86,5.35a19,19,0,1,1-19,19,19,19,0,0,1,19-19m0-2a21,21,0,1,0,21,21,21,21,0,0,0-21-21h0Z" transform="translate(-3.86 -3.35)"/></g><path class="cls-3" d="M30.86,24.35a1,1,0,0,0-2,0,4,4,0,1,1-8,0,1,1,0,0,0-2,0,6,6,0,0,0,5,5.91v2.09a1,1,0,0,0,2,0V30.26A6,6,0,0,0,30.86,24.35Z" transform="translate(-3.86 -3.35)"/><path class="cls-2" d="M30.86,20.35h-2v-3a1,1,0,0,0-2,0v3h-4v-3a1,1,0,0,0-2,0v3h-2a1,1,0,0,0,0,2h12A1,1,0,0,0,30.86,20.35Z" transform="translate(-3.86 -3.35)"/></svg>