<svg id="Layer_1" data-name="Layer 1" xmlns="http://www.w3.org/2000/svg" viewBox="0 0 42 42"><defs><style>.cls-1{opacity:0.3;}.cls-2{fill:#81888f;}.cls-3{fill:#64c76c;}</style></defs><title>gas-big</title><g class="cls-1"><path class="cls-2" d="M25.06,5.35a19,19,0,1,1-19,19,19,19,0,0,1,19-19m0-2a21,21,0,1,0,21,21,21,21,0,0,0-21-21h0Z" transform="translate(-4.06 -3.35)"/></g><path class="cls-3" d="M27.12,22.44L22.23,16a1,1,0,0,0-1.6,0l-4.88,6.48a6.81,6.81,0,0,0-1.41,4.16,6.92,6.92,0,0,0,4.48,6.46,1,1,0,0,0,1.1-1.61A1.9,1.9,0,0,1,19.79,29l1.65-2.18L23.08,29A1.9,1.9,0,0,1,23,31.45a1,1,0,0,0,.73,1.68A1,1,0,0,0,24,33.07a6.92,6.92,0,0,0,4.48-6.46A6.8,6.8,0,0,0,27.12,22.44Zm-1.67,7.21a3.89,3.89,0,0,0-.77-1.89l-2.44-3.24a1,1,0,0,0-1.6,0l-2.44,3.24a3.91,3.91,0,0,0-.78,1.9,4.85,4.85,0,0,1-.07-6l4.09-5.43,4.09,5.43h0A4.85,4.85,0,0,1,25.45,29.66Z" transform="translate(-4.06 -3.35)"/><path class="cls-2" d="M31.92,33.13a1,1,0,0,1-.73-1.68,1.16,1.16,0,0,0,.08-1.52l-1.82-2.42a1,1,0,1,1,1.6-1.2l1.82,2.41a3.16,3.16,0,0,1,.49.93A3.35,3.35,0,0,0,33.09,26l-2.84-3.77L30,22.49a1,1,0,0,1-1.6-1.2l1-1.34a1,1,0,0,1,.8-0.4h0a1,1,0,0,1,.8.4l3.64,4.83A5.31,5.31,0,0,1,35.78,28a5.4,5.4,0,0,1-3.5,5A1,1,0,0,1,31.92,33.13Z" transform="translate(-4.06 -3.35)"/></svg>