<svg id="Layer_1" data-name="Layer 1" xmlns="http://www.w3.org/2000/svg" viewBox="0 0 21.44 17.56"><title>gas</title><path d="M23.68,33.13A1,1,0,0,1,23,31.45,1.9,1.9,0,0,0,23.08,29l-1.65-2.19L19.79,29a1.9,1.9,0,0,0,.13,2.49,1,1,0,0,1-1.1,1.61,6.92,6.92,0,0,1-4.48-6.46,6.81,6.81,0,0,1,1.41-4.16L20.63,16a1,1,0,0,1,1.6,0l4.89,6.49a6.8,6.8,0,0,1,1.41,4.16A6.92,6.92,0,0,1,24,33.07,1,1,0,0,1,23.68,33.13ZM21.43,18.22l-4.09,5.43a4.85,4.85,0,0,0,.07,6,3.91,3.91,0,0,1,.78-1.9l2.44-3.24a1,1,0,0,1,.8-0.4h0a1,1,0,0,1,.8.4l2.44,3.24a3.89,3.89,0,0,1,.77,1.89,4.85,4.85,0,0,0,.08-6h0Z" transform="translate(-14.34 -15.58)"/><path d="M31.92,33.13a1,1,0,0,1-.73-1.68,1.16,1.16,0,0,0,.08-1.52l-1.82-2.42a1,1,0,1,1,1.6-1.2l1.82,2.41a3.16,3.16,0,0,1,.49.93A3.35,3.35,0,0,0,33.09,26l-2.84-3.77L30,22.49a1,1,0,0,1-1.6-1.2l1-1.34a1,1,0,0,1,.8-0.4h0a1,1,0,0,1,.8.4l3.64,4.83A5.31,5.31,0,0,1,35.78,28a5.4,5.4,0,0,1-3.5,5A1,1,0,0,1,31.92,33.13Z" transform="translate(-14.34 -15.58)"/></svg>