<svg id="Layer_1" data-name="Layer 1" xmlns="http://www.w3.org/2000/svg" viewBox="0 0 42 42"><defs><style>.cls-1{opacity:0.3;}.cls-2{fill:#81888f;}.cls-3{fill:#64c76c;}</style></defs><title>hotWater-big</title><g class="cls-1"><path class="cls-2" d="M24.75,5.35a19,19,0,1,1-19,19,19,19,0,0,1,19-19m0-2a21,21,0,1,0,21,21,21,21,0,0,0-21-21h0Z" transform="translate(-3.75 -3.35)"/></g><path class="cls-3" d="M20.76,31.6a1,1,0,0,1-.61-0.21,6.86,6.86,0,0,1-1.31-9.64l4.88-6.48a1,1,0,0,1,1.6,0l4.89,6.49a1,1,0,0,1-1.6,1.2l-4.09-5.43L20.43,23a4.83,4.83,0,0,0-1,3,4.89,4.89,0,0,0,1.94,3.89A1,1,0,0,1,20.76,31.6Z" transform="translate(-3.75 -3.35)"/><path class="cls-2" d="M24.43,33.82a1,1,0,0,1-1-.75,11.16,11.16,0,0,1-.37-2.41A4.56,4.56,0,0,1,23.64,29,3.93,3.93,0,0,0,24,28a6.36,6.36,0,0,0-.66-1.73,1,1,0,0,1,1.77-.94A7.43,7.43,0,0,1,26,28a4.27,4.27,0,0,1-.55,1.83,4,4,0,0,0-.36.92,9.92,9.92,0,0,0,.31,1.84,1,1,0,0,1-.72,1.21A1,1,0,0,1,24.43,33.82Z" transform="translate(-3.75 -3.35)"/><path class="cls-2" d="M27.43,33.82a1,1,0,0,1-1-.75,11.09,11.09,0,0,1-.37-2.42A4.56,4.56,0,0,1,26.64,29,3.94,3.94,0,0,0,27,28a6.27,6.27,0,0,0-.66-1.73,1,1,0,0,1,1.77-.94A7.42,7.42,0,0,1,29,28a4.3,4.3,0,0,1-.55,1.83,4,4,0,0,0-.36.92,9.83,9.83,0,0,0,.31,1.84,1,1,0,0,1-.72,1.21A1,1,0,0,1,27.43,33.82Z" transform="translate(-3.75 -3.35)"/><path class="cls-2" d="M30.43,33.82a1,1,0,0,1-1-.75,11.09,11.09,0,0,1-.37-2.42A4.56,4.56,0,0,1,29.64,29,3.94,3.94,0,0,0,30,28a6.27,6.27,0,0,0-.66-1.73,1,1,0,0,1,1.77-.94A7.42,7.42,0,0,1,32,28a4.3,4.3,0,0,1-.55,1.83,4,4,0,0,0-.36.92,9.83,9.83,0,0,0,.31,1.84,1,1,0,0,1-.72,1.21A1,1,0,0,1,30.43,33.82Z" transform="translate(-3.75 -3.35)"/></svg>