<?xml version="1.0" encoding="utf-8"?>
<!-- Generator: Adobe Illustrator 19.2.1, SVG Export Plug-In . SVG Version: 6.00 Build 0)  -->
<svg version="1.1" id="Layer_1" xmlns="http://www.w3.org/2000/svg" xmlns:xlink="http://www.w3.org/1999/xlink" x="0px" y="0px"
	 viewBox="0 0 24 15.7" style="enable-background:new 0 0 24 15.7;" xml:space="preserve">
<title>Visitors</title>
<g>
	<path d="M10.7,7.5c0.7-0.8,1.2-1.9,1.2-3C11.9,2,9.9,0,7.4,0S2.9,2,2.9,4.5c0,1.2,0.5,2.2,1.2,3C1.7,8.4,0,10,0,11.9l0,2.2
		c0,0.6,0.4,1.1,0.9,1.5l0.3,0.2h12.8l0.3-0.3c0.4-0.4,0.6-0.9,0.6-1.5l0-2C14.8,10,13.1,8.4,10.7,7.5z M4.9,4.5C4.9,3.1,6,2,7.4,2
		c1.4,0,2.5,1.1,2.5,2.5C9.9,5.9,8.8,7,7.4,7C6,7,4.9,5.9,4.9,4.5z M12.8,13.7H2v-1.8C2,10.6,4.2,9,7.4,9c3,0,5.2,1.4,5.4,2.7V13.7z
		"/>
	<path d="M20.9,8.9c0.5-0.6,0.8-1.4,0.8-2.3c0-2.1-1.7-3.8-3.8-3.8c-2.1,0-3.8,1.7-3.8,3.8c0,2.1,1.7,3.8,3.8,3.8
		c2.4,0,4.1,1.1,4.1,2.1v1.2h-4.1c-0.6,0-1,0.4-1,1s0.4,1,1,1h5.3l0.3-0.3c0.4-0.3,0.6-0.8,0.5-1.3v-1.6C24,10.9,22.8,9.6,20.9,8.9z
		 M16.1,6.5c0-1,0.8-1.8,1.8-1.8s1.8,0.8,1.8,1.8c0,1-0.8,1.8-1.8,1.8S16.1,7.5,16.1,6.5z"/>
</g>
</svg>
